<mxfile host="app.diagrams.net" modified="2023-01-13T06:56:42.269Z" agent="5.0 (Windows NT 10.0; Win64; x64) AppleWebKit/537.36 (KHTML, like Gecko) Chrome/108.0.0.0 Safari/537.36" version="20.8.0" etag="zXsiCvnXnFWymF7AX03i" type="github">
  <diagram id="B3mQ8idJ3WL7Z4S3INuD" name="第 1 页">
    <mxGraphModel dx="1672" dy="970" grid="1" gridSize="10" guides="1" tooltips="1" connect="1" arrows="1" fold="1" page="1" pageScale="1" pageWidth="413" pageHeight="291" math="0" shadow="0">
      <root>
        <mxCell id="0" />
        <mxCell id="1" parent="0" />
        <mxCell id="92aB2_-_vNLk-b_zdvdB-11" style="edgeStyle=orthogonalEdgeStyle;rounded=0;orthogonalLoop=1;jettySize=auto;html=1;" edge="1" parent="1" source="92aB2_-_vNLk-b_zdvdB-1" target="92aB2_-_vNLk-b_zdvdB-2">
          <mxGeometry relative="1" as="geometry" />
        </mxCell>
        <mxCell id="92aB2_-_vNLk-b_zdvdB-13" style="edgeStyle=orthogonalEdgeStyle;rounded=0;orthogonalLoop=1;jettySize=auto;html=1;entryX=0;entryY=0.5;entryDx=0;entryDy=0;" edge="1" parent="1" source="92aB2_-_vNLk-b_zdvdB-1" target="92aB2_-_vNLk-b_zdvdB-7">
          <mxGeometry relative="1" as="geometry" />
        </mxCell>
        <mxCell id="92aB2_-_vNLk-b_zdvdB-1" value="Bean1" style="rounded=1;whiteSpace=wrap;html=1;" vertex="1" parent="1">
          <mxGeometry x="167" y="115" width="70" height="30" as="geometry" />
        </mxCell>
        <mxCell id="92aB2_-_vNLk-b_zdvdB-2" value="" style="rounded=0;whiteSpace=wrap;html=1;" vertex="1" parent="1">
          <mxGeometry x="-43" y="30" width="120" height="200" as="geometry" />
        </mxCell>
        <mxCell id="92aB2_-_vNLk-b_zdvdB-3" value="Bean2" style="rounded=1;whiteSpace=wrap;html=1;" vertex="1" parent="1">
          <mxGeometry x="-23" y="50" width="70" height="30" as="geometry" />
        </mxCell>
        <mxCell id="92aB2_-_vNLk-b_zdvdB-5" value="Bean3" style="rounded=1;whiteSpace=wrap;html=1;" vertex="1" parent="1">
          <mxGeometry x="-23" y="110" width="70" height="30" as="geometry" />
        </mxCell>
        <mxCell id="92aB2_-_vNLk-b_zdvdB-6" value="Bean4" style="rounded=1;whiteSpace=wrap;html=1;" vertex="1" parent="1">
          <mxGeometry x="-23" y="180" width="70" height="30" as="geometry" />
        </mxCell>
        <mxCell id="92aB2_-_vNLk-b_zdvdB-7" value="" style="rounded=0;whiteSpace=wrap;html=1;" vertex="1" parent="1">
          <mxGeometry x="337" y="30" width="120" height="200" as="geometry" />
        </mxCell>
        <mxCell id="92aB2_-_vNLk-b_zdvdB-8" value="Bean2" style="rounded=1;whiteSpace=wrap;html=1;" vertex="1" parent="1">
          <mxGeometry x="362" y="50" width="70" height="30" as="geometry" />
        </mxCell>
        <mxCell id="92aB2_-_vNLk-b_zdvdB-9" value="Bean5" style="rounded=1;whiteSpace=wrap;html=1;" vertex="1" parent="1">
          <mxGeometry x="362" y="110" width="70" height="30" as="geometry" />
        </mxCell>
        <mxCell id="92aB2_-_vNLk-b_zdvdB-10" value="Bean6" style="rounded=1;whiteSpace=wrap;html=1;" vertex="1" parent="1">
          <mxGeometry x="362" y="180" width="70" height="30" as="geometry" />
        </mxCell>
        <mxCell id="92aB2_-_vNLk-b_zdvdB-12" value="bean1 &lt;br&gt;依赖的" style="text;html=1;strokeColor=none;fillColor=none;align=center;verticalAlign=middle;whiteSpace=wrap;rounded=0;" vertex="1" parent="1">
          <mxGeometry x="94" y="90" width="60" height="30" as="geometry" />
        </mxCell>
        <mxCell id="92aB2_-_vNLk-b_zdvdB-14" value="bean1 &lt;br&gt;从属的" style="text;html=1;strokeColor=none;fillColor=none;align=center;verticalAlign=middle;whiteSpace=wrap;rounded=0;" vertex="1" parent="1">
          <mxGeometry x="257" y="90" width="60" height="30" as="geometry" />
        </mxCell>
        <mxCell id="92aB2_-_vNLk-b_zdvdB-15" value="" style="shape=curlyBracket;whiteSpace=wrap;html=1;rounded=1;flipH=1;labelPosition=right;verticalLabelPosition=middle;align=left;verticalAlign=middle;size=0.35;rotation=-90;" vertex="1" parent="1">
          <mxGeometry x="196.5" y="-180" width="20" height="390" as="geometry" />
        </mxCell>
        <mxCell id="92aB2_-_vNLk-b_zdvdB-19" value="&lt;font style=&quot;font-size: 18px;&quot;&gt;有交集就产生了循环引用&lt;/font&gt;" style="text;html=1;strokeColor=none;fillColor=none;align=center;verticalAlign=middle;whiteSpace=wrap;rounded=0;" vertex="1" parent="1">
          <mxGeometry x="110" y="-30" width="200" height="30" as="geometry" />
        </mxCell>
      </root>
    </mxGraphModel>
  </diagram>
</mxfile>
